<svg t="1721488389320" class="icon" viewBox="0 0 1024 1024" version="1.1" xmlns="http://www.w3.org/2000/svg" p-id="1699" width="200" height="200"><path d="M901.46 52.12H122.53C105.6 52.12 0 52.12 0 174.76v674.46c0 122.66 122.53 122.66 122.53 122.66h778.94C1024 971.88 1024 849.22 1024 849.22V174.76c0-122.64-105.59-122.64-122.54-122.64z m61.27 797.1s-88.46-66.84-94.37-71.83c-12.14-10.28-24.28-20.56-36.41-30.85-38.1-32.26-75.98-64.77-113.81-97.33-18.91-16.29-37.8-32.59-56.72-48.88-10.73-9.23-32.51-38.5-49.14-29.22-12.9 7.2-121.58 102.61-121.58 102.61-31.88-29.55-63.77-59.08-95.64-88.65-15.92-14.79-31.57-29.93-47.76-44.42-30.25-27.06-49.15-53.68-89.23-20.26-31.1 25.94-61.42 51.17-93.86 75.66-21.96 16.6-43.88 33.23-65.78 49.91-4.2 3.19-37.14 22.94-37.14 28.11V174.76c0-61.32 44.32-61.32 61.25-61.32h778.93c16.95 0 61.27 0 61.27 61.32v674.46z" fill="#272636" opacity=".2" p-id="1700"></path><path d="M769.54 278.99c-49.1 0-88.91 39.81-88.91 88.92 0 49.07 39.81 88.9 88.91 88.9 49.08 0 88.91-39.83 88.91-88.9-0.01-49.11-39.83-88.92-88.91-88.92" fill="#272636" opacity=".2" p-id="1701"></path></svg>